<svg width="25" height="26" viewBox="0 0 25 26" fill="none" xmlns="http://www.w3.org/2000/svg">
<path d="M22.4303 7.12891C22.4461 7.3985 22.4461 7.66815 22.4461 7.93774C22.4461 16.1606 17.2907 25.6353 7.86805 25.6353C4.96511 25.6353 2.26842 24.6146 0 22.843C0.412453 22.9007 0.808988 22.92 1.23731 22.92C3.63258 22.92 5.83757 21.9379 7.59837 20.2625C5.34582 20.2047 3.45812 18.4138 2.80773 15.9488C3.12501 16.0065 3.44225 16.0451 3.77541 16.0451C4.23542 16.0451 4.69548 15.968 5.12375 15.8333C2.77604 15.2555 1.01519 12.7521 1.01519 9.72867V9.65167C1.69727 10.1138 2.49049 10.4027 3.33117 10.4412C1.95108 9.32422 1.04693 7.41777 1.04693 5.26093C1.04693 4.10551 1.30069 3.04635 1.74488 2.12199C4.26711 5.89643 8.05838 8.36133 12.3096 8.63098C12.2303 8.1688 12.1827 7.68742 12.1827 7.20597C12.1827 3.77813 14.467 0.98584 17.3065 0.98584C18.7817 0.98584 20.1142 1.73687 21.0501 2.95009C22.2081 2.6805 23.3185 2.16052 24.302 1.44802C23.9213 2.89235 23.1123 4.10557 22.0495 4.87581C23.0806 4.74107 24.08 4.39436 25 3.91298C24.3021 5.1454 23.4296 6.24302 22.4303 7.12891Z" fill="black"/>
</svg>
