<svg width="27" height="28" viewBox="0 0 27 28" fill="none" xmlns="http://www.w3.org/2000/svg">
<path d="M13.503 7.47107C9.67211 7.47107 6.5821 10.5184 6.5821 14.2964C6.5821 18.0744 9.67211 21.1217 13.503 21.1217C17.3339 21.1217 20.4239 18.0744 20.4239 14.2964C20.4239 10.5184 17.3339 7.47107 13.503 7.47107ZM13.503 18.7337C11.0274 18.7337 9.00351 16.7438 9.00351 14.2964C9.00351 11.849 11.0214 9.85904 13.503 9.85904C15.9847 9.85904 18.0025 11.849 18.0025 14.2964C18.0025 16.7438 15.9786 18.7337 13.503 18.7337ZM22.3213 7.19188C22.3213 8.07698 21.5985 8.78386 20.707 8.78386C19.8095 8.78386 19.0927 8.07104 19.0927 7.19188C19.0927 6.31273 19.8156 5.59991 20.707 5.59991C21.5985 5.59991 22.3213 6.31273 22.3213 7.19188ZM26.9051 8.80762C26.8027 6.67509 26.3088 4.7861 24.7246 3.22976C23.1465 1.67342 21.2311 1.18632 19.0687 1.0794C16.84 0.954654 10.16 0.954654 7.93134 1.0794C5.77496 1.18038 3.85951 1.66748 2.27535 3.22382C0.691188 4.78015 0.203291 6.66914 0.0948689 8.80168C-0.031623 10.9996 -0.031623 17.5873 0.0948689 19.7851C0.197267 21.9177 0.691188 23.8067 2.27535 25.363C3.85951 26.9194 5.76893 27.4065 7.93134 27.5134C10.16 27.6381 16.84 27.6381 19.0687 27.5134C21.2311 27.4124 23.1465 26.9253 24.7246 25.363C26.3028 23.8067 26.7967 21.9177 26.9051 19.7851C27.0316 17.5873 27.0316 11.0055 26.9051 8.80762ZM24.0259 22.1434C23.5561 23.3077 22.6466 24.2047 21.46 24.674C19.683 25.369 15.4666 25.2086 13.503 25.2086C11.5394 25.2086 7.31695 25.363 5.54607 24.674C4.36548 24.2106 3.45594 23.3136 2.98009 22.1434C2.27535 20.3911 2.43798 16.2329 2.43798 14.2964C2.43798 12.3599 2.28137 8.19578 2.98009 6.44936C3.44992 5.28507 4.35945 4.3881 5.54607 3.91882C7.32298 3.22382 11.5394 3.3842 13.503 3.3842C15.4666 3.3842 19.6891 3.22976 21.46 3.91882C22.6405 4.38216 23.5501 5.27913 24.0259 6.44936C24.7307 8.20172 24.568 12.3599 24.568 14.2964C24.568 16.2329 24.7307 20.397 24.0259 22.1434Z" fill="black"/>
</svg>
